<svg xmlns="http://www.w3.org/2000/svg" version="1.1" xmlns:xlink="http://www.w3.org/1999/xlink" width="512" height="512" x="0" y="0" viewBox="0 0 16.933 16.933" style="enable-background:new 0 0 512 512" xml:space="preserve" class=""><g><g fill="#3b3c3d"><path d="M9.42 7.57c-.875 0-1.59.715-1.59 1.59 0 .875.715 1.59 1.59 1.59.875 0 1.59-.715 1.59-1.59 0-.875-.715-1.59-1.59-1.59z" fill="#fffff" opacity="1" data-original="#3b3c3d" class=""></path><path d="M2 9.16c0 .49.246.943.643 1.326.397.382.948.708 1.618.98 1.338.546 3.154.874 5.159.874s3.82-.328 5.16-.874c.668-.272 1.22-.598 1.617-.98.396-.383.643-.836.643-1.326s-.247-.944-.643-1.326c-.397-.382-.949-.708-1.618-.98-1.338-.546-3.154-.874-5.16-.874s-3.82.328-5.158.873c-.67.273-1.221.599-1.618.981S2 8.67 2 9.16zm.53 0c0-.314.154-.628.482-.944.327-.315.823-.616 1.449-.871 1.251-.51 3.012-.834 4.959-.834s3.708.324 4.959.834c.625.255 1.122.556 1.449.871.327.316.481.63.481.944 0 .314-.154.628-.481.943-.327.315-.824.617-1.45.872-1.25.51-3.012.834-4.958.834s-3.708-.324-4.96-.834c-.625-.255-1.121-.557-1.448-.872-.328-.315-.482-.629-.482-.943z" fill="#fffff" opacity="1" data-original="#3b3c3d" class=""></path><path d="M13.288 15.853c.427-.246.69-.697.812-1.245s.116-1.206.003-1.944c-.228-1.478-.891-3.279-1.937-5.088S9.891 4.293 8.724 3.357c-.583-.468-1.151-.802-1.687-.97-.536-.168-1.058-.166-1.485.08-.427.246-.69.697-.812 1.244-.122.548-.116 1.207-.003 1.945.228 1.478.892 3.279 1.937 5.088s2.275 3.283 3.442 4.219c.583.467 1.151.802 1.687.97s1.058.166 1.485-.08zm-.266-.46c-.267.155-.617.173-1.06.034-.445-.14-.966-.438-1.514-.878-1.096-.878-2.297-2.31-3.314-4.07-1.018-1.761-1.659-3.516-1.872-4.903-.107-.694-.106-1.294-.004-1.748.101-.454.292-.747.56-.901.267-.154.616-.173 1.06-.034.444.14.966.438 1.514.877 1.095.879 2.296 2.31 3.314 4.072 1.017 1.76 1.658 3.515 1.872 4.902.107.694.105 1.295.003 1.748-.101.454-.291.747-.559.901z" fill="#fffff" opacity="1" data-original="#3b3c3d" class=""></path><path d="M5.552 15.853c-.427-.246-.69-.697-.812-1.245-.123-.547-.117-1.205-.003-1.944.228-1.477.891-3.28 1.937-5.088 1.045-1.809 2.275-3.284 3.442-4.22.583-.467 1.15-.801 1.687-.97.536-.167 1.058-.165 1.485.081.427.246.69.697.812 1.244.122.548.116 1.206.002 1.945-.227 1.477-.89 3.279-1.936 5.087-1.046 1.81-2.276 3.285-3.443 4.22-.583.468-1.15.802-1.686.97-.536.168-1.058.166-1.485-.08zm.266-.46c.267.155.616.173 1.06.034.444-.139.966-.438 1.514-.878 1.095-.878 2.297-2.31 3.314-4.07 1.018-1.761 1.658-3.516 1.872-4.903.107-.694.106-1.295.004-1.749-.101-.453-.292-.746-.56-.9-.267-.155-.616-.173-1.06-.034-.444.139-.966.438-1.514.877-1.096.879-2.296 2.31-3.314 4.071-1.018 1.76-1.659 3.516-1.872 4.903-.107.694-.106 1.295-.004 1.749.101.453.292.746.56.9z" fill="#fffff" opacity="1" data-original="#3b3c3d" class=""></path></g></g></svg>